{
    "asset" : {
        "generator" : "Khronos glTF Blender I/O v1.6.16",
        "version" : "2.0"
    },
    "scene" : 0,
    "scenes" : [
        {
            "name" : "Scene",
            "nodes" : [
                0,
                1,
                2
            ]
        }
    ],
    "nodes" : [
        {
            "mesh" : 0,
            "name" : "House",
            "translation" : [
                -2.1631243228912354,
                8.666598320007324,
                -19.68252944946289
            ]
        },
        {
            "name" : "Lamp",
            "rotation" : [
                0.16907575726509094,
                0.7558803558349609,
                -0.27217137813568115,
                0.570947527885437
            ],
            "translation" : [
                4.076245307922363,
                5.903861999511719,
                -1.0054539442062378
            ]
        },
        {
            "name" : "Camera",
            "rotation" : [
                0.2729991674423218,
                -0.7267059683799744,
                0.49593111872673035,
                0.3891301155090332
            ],
            "scale" : [
                3.0037035942077637,
                3.0037035942077637,
                3.003704071044922
            ],
            "translation" : [
                -64.28538513183594,
                33.63174057006836,
                -59.35567092895508
            ]
        }
    ],
    "materials" : [
        {
            "doubleSided" : true,
            "name" : "House",
            "pbrMetallicRoughness" : {
                "baseColorFactor" : [
                    0.800000011920929,
                    0.800000011920929,
                    0.800000011920929,
                    1
                ],
                "metallicFactor" : 0,
                "roughnessFactor" : 0.5
            }
        }
    ],
    "meshes" : [
        {
            "name" : "House",
            "primitives" : [
                {
                    "attributes" : {
                        "POSITION" : 0,
                        "NORMAL" : 1,
                        "TEXCOORD_0" : 2
                    },
                    "indices" : 3,
                    "material" : 0
                }
            ]
        }
    ],
    "accessors" : [
        {
            "bufferView" : 0,
            "componentType" : 5126,
            "count" : 3122,
            "max" : [
                14.160849571228027,
                11.642162322998047,
                21.358915328979492
            ],
            "min" : [
                -14.156201362609863,
                -10.583298683166504,
                -21.50350570678711
            ],
            "type" : "VEC3"
        },
        {
            "bufferView" : 1,
            "componentType" : 5126,
            "count" : 3122,
            "type" : "VEC3"
        },
        {
            "bufferView" : 2,
            "componentType" : 5126,
            "count" : 3122,
            "type" : "VEC2"
        },
        {
            "bufferView" : 3,
            "componentType" : 5123,
            "count" : 4680,
            "type" : "SCALAR"
        }
    ],
    "bufferViews" : [
        {
            "buffer" : 0,
            "byteLength" : 37464,
            "byteOffset" : 0
        },
        {
            "buffer" : 0,
            "byteLength" : 37464,
            "byteOffset" : 37464
        },
        {
            "buffer" : 0,
            "byteLength" : 24976,
            "byteOffset" : 74928
        },
        {
            "buffer" : 0,
            "byteLength" : 9360,
            "byteOffset" : 99904
        }
    ],
    "buffers" : [
        {
            "byteLength" : 109264,
            "uri" : "data:application/octet-stream;base64,"
        }
    ]
}
